<?xml version="1.0" encoding="utf-8"?>
<!-- Generator: Adobe Illustrator 16.0.0, SVG Export Plug-In . SVG Version: 6.00 Build 0)  -->
<!DOCTYPE svg PUBLIC "-//W3C//DTD SVG 1.1//EN" "http://www.w3.org/Graphics/SVG/1.1/DTD/svg11.dtd">
<svg version="1.1" id="Capa_1" xmlns="http://www.w3.org/2000/svg" xmlns:xlink="http://www.w3.org/1999/xlink" x="0px" y="0px"
	 width="1500px" height="800px" viewBox="0 0 1500 800" enable-background="new 0 0 1500 800" xml:space="preserve">
<g>
	<g>
		<path fill="#0074A7" d="M725.979,430.936c333.534,0,530.09-21.811,530.09-81.389s-216.505-78.197-233.526-79.792
			c-5.586,0-10.107,4.521-10.107,10.107s4.521,10.107,10.107,10.107c12.235,1.064,226.611,13.564,226.611,59.579
			c0,48.407-251.081,61.972-523.175,61.972c-272.359,0-523.44-13.565-523.44-61.972c0-46.014,214.643-58.781,226.611-59.579
			c5.585,0,10.106-4.521,10.106-10.107s-4.521-10.107-10.106-10.107c-17.023,1.595-233.527,20.48-233.527,79.792
			C195.89,408.859,392.446,430.936,725.979,430.936"/>
		<polygon fill="#0074A7" points="456.28,253.263 485.804,252.465 486.069,257.785 463.728,258.316 463.728,266.828 
			485.271,266.562 485.538,271.881 463.994,272.413 464.26,281.722 487.134,281.19 487.134,286.51 457.078,287.308 		"/>
		<path fill="#0074A7" d="M493.251,252.199l18.352-0.798c13.299-0.532,17.023,6.915,17.289,16.756
			c0.266,7.447-2.66,16.756-14.363,17.289l-19.948,0.798L493.251,252.199z M501.496,280.659l10.107-0.532
			c5.054-0.266,10.639-2.128,10.107-12.235c-0.532-10.905-7.447-11.437-11.438-11.171l-9.575,0.266L501.496,280.659z"/>
		<polygon fill="#0074A7" points="536.073,250.337 543.254,250.071 544.584,284.116 537.403,284.382 		"/>
		<polygon fill="#0074A7" points="562.937,254.593 550.17,255.125 549.904,249.805 582.619,248.476 582.885,253.795 
			570.118,254.327 571.182,283.052 564,283.318 		"/>
		<path fill="#0074A7" d="M583.949,265.498c-0.266-9.575,5.053-18.086,19.416-18.619c14.363-0.532,20.48,7.713,20.746,17.289
			c0.266,9.575-5.054,18.086-19.417,18.618C590.066,283.318,584.214,275.073,583.949,265.498 M616.663,264.434
			c-0.265-7.447-5.053-12.501-13.032-12.235c-7.98,0.266-12.501,5.585-12.235,13.033s5.054,12.5,13.033,12.235
			C612.408,277.201,616.663,271.881,616.663,264.434"/>
		<path fill="#0074A7" d="M630.229,246.879l21.544-0.532c8.51-0.266,11.437,3.724,11.703,9.043c0,4.521-2.394,7.181-5.585,8.245l0,0
			c3.989,0.798,5.053,4.256,5.053,9.043c0,1.596,0.266,5.585,1.596,7.182l-7.713,0.266c-0.532-1.064-0.798-2.66-1.064-5.054
			c0-4.788-0.798-8.245-6.118-8.245l-12.234,0.266l0.265,13.565l-7.181,0.266L630.229,246.879z M650.177,261.774
			c3.989,0,6.117-1.33,6.117-5.054c0-3.458-2.394-4.788-6.117-4.788l-12.501,0.266l0.267,9.841L650.177,261.774z"/>
		<polygon fill="#0074A7" points="670.923,246.082 677.838,246.082 678.37,280.127 671.189,280.127 		"/>
		<path fill="#0074A7" d="M697.786,245.816h8.512l15.161,34.045h-7.979l-3.458-8.512h-15.958l-3.458,8.512h-7.713L697.786,245.816z
			 M707.893,266.03l-5.851-14.362l-5.852,14.362H707.893z"/>
		<polygon fill="#0074A7" points="726.512,245.816 733.693,245.816 733.161,274.541 753.907,274.807 753.907,280.393 
			725.979,279.861 		"/>
		<polygon fill="#0074A7" points="778.377,246.614 788.75,246.879 799.921,273.743 812.422,247.678 822.795,247.943 821.73,281.988 
			815.081,281.722 816.146,253.529 815.88,253.529 802.58,281.457 796.463,281.457 784.761,252.731 784.761,252.731 
			784.229,280.925 777.579,280.925 		"/>
		<polygon fill="#0074A7" points="831.306,248.209 860.829,249.273 860.829,254.593 838.222,253.795 837.955,262.306 
			859.499,263.104 859.233,268.689 837.689,267.892 837.424,277.201 860.298,277.999 860.031,283.318 829.976,282.254 		"/>
		<path fill="#0074A7" d="M868.276,249.539l18.353,0.798c13.299,0.532,16.225,8.245,15.959,18.086
			c-0.267,7.447-3.99,16.49-15.693,16.224l-19.948-0.797L868.276,249.539z M874.128,278.531l10.107,0.532
			c5.054,0.266,10.639-1.33,11.171-11.171c0.532-11.171-6.384-11.969-10.373-12.235l-9.575-0.532L874.128,278.531z"/>
		<polygon fill="#0074A7" points="910.566,251.401 917.748,251.667 916.152,285.712 908.971,285.446 		"/>
		<path fill="#0074A7" d="M953.655,266.03c-0.532-5.319-4.521-8.511-10.64-8.777c-6.649-0.266-11.703,3.724-12.234,12.767
			c-0.267,7.182,4.255,12.235,11.437,12.501c7.447,0.266,10.107-4.522,10.905-7.979l7.713,0.532
			c-1.33,6.649-6.117,13.564-20.214,13.033c-12.235-0.532-17.82-9.309-17.288-18.884c0.531-9.575,6.648-17.82,19.947-17.022
			c11.703,0.532,17.555,7.182,17.821,14.629L953.655,266.03z"/>
		<path fill="#0074A7" d="M980.519,255.125l8.511,0.532l13.299,35.109l-7.979-0.532l-3.191-8.777l-15.959-0.798l-3.989,8.245
			l-7.714-0.532L980.519,255.125z M989.296,275.871l-5.054-14.629l-6.649,14.097L989.296,275.871z"/>
		<path fill="#0074A7" d="M372.498,314.704c15.161,0,24.735,15.427,24.735,29.257c0,12.5-8.245,26.332-21.81,26.332
			c-7.447,0-13.831-3.724-18.353-9.309v3.99c0,3.191,0.266,6.915,0.798,9.575c1.064,3.724,6.649,3.99,6.649,7.447
			c0,3.192-3.192,3.724-5.852,3.724h-19.15c-2.394,0-5.32-0.266-5.585-3.458c0-3.723,3.989-3.457,5.585-5.851
			c1.33-1.596,1.595-7.181,1.595-11.171v-4.788v-23.406c0-10.107-7.447-5.585-7.447-10.639c0-1.596,1.596-2.66,2.66-3.191
			l14.363-7.713c0.798-0.266,1.596-0.532,2.394-0.798c3.723,0,3.989,3.724,3.989,6.915v1.596
			C361.061,318.959,366.115,314.704,372.498,314.704 M370.636,323.215c-9.575,0-14.363,10.639-14.363,18.884
			c0,6.118,1.596,15.693,9.31,15.693c9.841,0,16.757-11.703,16.757-20.214C382.339,330.662,378.083,323.215,370.636,323.215"/>
		<path fill="#0074A7" d="M420.107,370.026c-9.575,0-19.948-5.053-19.948-15.958c0-13.033,15.161-18.618,25.799-18.618
			c2.66,0,5.054,0,7.713,0.266c-2.127-5.851-4.787-11.969-12.234-11.969s-10.373,5.32-14.097,5.32c-1.33,0-2.394-1.064-2.66-2.394
			c0-8.245,15.427-12.501,21.81-12.501c14.363,0,19.683,7.979,23.406,20.48l5.585,18.353c0.798,2.926,3.458,7.713,6.916,7.713
			c1.064,0,2.128-0.798,2.66-1.33c1.064,1.064,1.862,2.394,1.862,3.99c0,5.32-7.713,6.383-11.703,6.383
			c-6.118,0-9.841-2.127-13.299-6.916C435.534,367.367,428.087,370.026,420.107,370.026 M436.066,346.088
			c-1.33-3.191-3.723-3.99-6.915-3.99c-5.319,0-11.437,2.926-11.437,8.777c0,6.118,5.585,9.841,11.171,9.841
			c3.458,0,9.575-1.33,9.575-5.852C438.726,352.472,437.13,348.482,436.066,346.088"/>
		<path fill="#0074A7" d="M509.209,315.768c10.373,0,14.629,8.777,17.022,17.288l5.319,19.416c1.596,5.586,1.596,7.182,6.384,10.373
			c1.064,0.798,1.861,1.596,1.861,2.926c0,2.66-2.393,3.458-4.788,3.458h-21.544c-1.862,0-4.255-0.798-4.255-3.191
			c0-3.99,6.383-3.99,6.383-8.512c0-1.064-0.266-2.394-0.532-3.458l-4.256-16.225c-1.063-4.255-3.191-11.437-8.777-11.437
			c-6.117,0-7.447,7.713-7.447,12.235v7.979c0,3.99,0.266,7.979,0.798,11.703c0.797,3.458,6.117,3.989,6.117,7.713
			c0,2.66-3.192,3.191-5.32,3.191h-19.15c-2.128,0-5.319-0.532-5.319-3.191c0-4.522,6.915-1.862,6.915-15.959
			c0-3.724,0-7.713,0-11.437c0-9.841-7.181-6.117-7.181-10.373c0-1.064,1.064-2.66,2.127-3.191l16.491-8.777
			c0.532-0.266,1.33-0.532,1.862-0.798c2.394,0,2.926,2.66,2.926,4.521v3.724C499.103,319.757,503.092,315.768,509.209,315.768"/>
		<path fill="#0074A7" d="M561.074,370.026c-9.574,0-19.948-5.053-19.948-15.958c0-13.033,15.161-18.618,26.066-18.618
			c2.394,0,5.054,0,7.713,0.266c-2.127-5.851-4.788-11.969-12.235-11.969s-10.373,5.32-14.097,5.32c-1.33,0-2.393-1.064-2.66-2.394
			c0-8.245,15.427-12.501,21.811-12.501c14.096,0,19.416,7.979,23.405,20.48l5.585,18.353c0.798,2.926,3.458,7.713,6.649,7.713
			c1.064,0,2.128-0.798,2.66-1.33c1.33,1.064,1.862,2.394,1.862,3.99c0,5.32-7.713,6.383-11.704,6.383
			c-6.117,0-9.84-2.127-13.298-6.916C576.501,367.367,569.054,370.026,561.074,370.026 M574.374,346.088
			c-1.33-3.191-3.724-3.99-6.649-3.99c-5.32,0-11.438,2.926-11.438,8.777c0,6.118,5.585,9.841,11.171,9.841
			c3.458,0,9.575-1.33,9.575-5.852C577.033,352.472,575.438,348.482,574.374,346.088"/>
		<path fill="#0074A7" d="M679.699,315.501c7.714,0,13.034,4.788,15.427,12.235l7.448,24.47c0.798,2.394,1.33,4.788,2.66,6.915
			c1.064,1.596,2.66,2.66,4.255,3.724c1.33,0.798,2.128,1.596,2.128,2.926c0,2.394-2.395,3.192-4.256,3.192H685.02
			c-2.394,0-5.852-0.532-5.852-3.458c0-3.724,7.181-3.99,7.448-7.181c0-1.862-0.532-4.256-1.064-6.118l-5.586-18.352
			c-1.063-3.458-3.191-6.916-7.181-6.916c-5.585,0-7.182,6.383-7.182,10.905v7.979c0,3.99,0,7.979,0.798,11.969
			c1.064,3.724,6.117,3.99,6.117,7.713c0,2.66-3.192,3.192-5.319,3.192h-19.15c-2.128,0-5.319-0.532-5.319-3.192
			c0-4.521,6.915-1.596,6.915-15.958c0-1.862,0-3.99,0-5.852c0-1.33,0-3.191,0-5.054c0-5.585-0.798-12.235-7.181-12.235
			c-6.117,0-9.841,5.852-9.841,11.438c0,2.925,0,6.117,0,9.043c0,3.724,0,7.447,1.064,10.905c0.798,3.458,6.117,3.99,6.117,7.713
			c0,2.66-3.192,3.192-5.319,3.192h-19.15c-2.128,0-5.32-0.532-5.32-3.192c0-4.521,6.915-1.862,6.915-15.958
			c0-3.458-0.266-7.182-0.266-10.639c0-11.437-7.713-6.383-7.713-11.437c0-1.862,1.596-2.926,2.926-3.458l15.958-8.245
			c0.532-0.266,1.596-0.798,2.394-0.798c2.127,0,2.394,2.659,2.394,5.585v3.192c4.521-4.522,10.106-8.512,16.757-8.512
			c6.649,0,12.234,2.66,15.426,8.512C668.529,319.225,673.05,315.501,679.699,315.501"/>
		<path fill="#0074A7" d="M747.79,360.185c9.841,0,16.225-9.043,18.352-9.043c1.33,0,2.926,1.064,2.926,2.66
			c0,3.192-3.457,6.118-5.585,7.979c-6.915,5.319-15.958,7.979-25.002,7.979c-16.225,0-28.725-11.17-28.725-27.927
			c0-15.161,13.831-27.396,28.725-27.396c8.245,0,16.225,3.191,21.278,9.575c0.798,1.064,5.053,6.649,5.053,8.777
			c0,1.33-5.319,3.724-7.446,4.521L731.3,349.014C734.491,355.93,740.342,360.185,747.79,360.185 M742.736,337.312
			c1.063-0.532,2.925-1.064,3.191-2.394c0,0,0-0.532,0-0.798c0-5.053-6.649-11.703-11.703-11.703s-8.246,4.787-8.246,9.309
			c0,1.862,0.798,10.905,3.724,10.905c0.532,0,1.33-0.266,1.861-0.532L742.736,337.312z"/>
		<path fill="#0074A7" d="M813.752,314.97c1.861,0,6.383,0,6.649,2.659c0,0.798-0.267,1.596-0.267,2.66l-4.521,13.831
			c-0.532,1.33-1.064,2.926-2.926,3.192c-2.926,0-4.256-6.649-9.575-6.649c-7.713,0-9.31,7.713-9.31,13.565v6.649
			c0,2.66,0,5.852,1.064,8.245c1.33,2.926,6.384,2.926,6.384,6.384c0,2.926-3.192,3.724-5.319,3.724h-19.416
			c-2.66,0-5.587-0.266-5.852-3.458c0-3.724,3.989-3.458,5.852-5.852c1.329-1.596,1.595-7.182,1.595-11.171v-13.033
			c0-7.447-6.915-2.925-6.915-8.245c0-1.33,1.063-2.128,1.861-2.66l15.693-9.043c0.798-0.532,1.33-0.798,2.394-0.798
			c2.926,0,3.191,2.659,3.191,5.053s0.267,4.788,0.267,6.916C799.655,320.555,804.442,314.97,813.752,314.97"/>
		<path fill="#0074A7" d="M845.137,344.227v4.521c0,3.192,0.266,6.916,0.798,9.31c0.798,3.458,6.649,3.724,6.649,7.447
			c0,3.192-3.192,3.724-5.585,3.724h-19.416c-2.66,0-5.586-0.266-5.853-3.458c0-3.724,3.99-3.458,5.853-5.852
			c1.329-1.596,1.596-7.182,1.596-11.171V335.45c0-11.171-6.117-4.788-6.117-10.107c0-1.861,1.861-2.925,3.457-3.724l14.362-6.383
			c0.532-0.266,1.33-0.532,2.129-0.798c2.127,0,2.393,2.394,2.393,3.99L845.137,344.227L845.137,344.227z M831.04,308.054
			c-3.192,0-5.852-2.66-5.852-5.32c0-6.117,9.31-9.841,14.097-9.841c2.926,0,5.852,2.128,5.852,5.054
			C845.137,304.331,836.36,308.054,831.04,308.054"/>
		<path fill="#0074A7" d="M902.854,335.715c-0.532,1.33-1.33,2.394-2.66,2.394c-3.989,0-3.724-17.022-15.691-17.022
			c-9.31,0-11.97,11.703-11.97,18.884c0,10.107,5.32,21.544,17.022,21.544c10.373,0,15.693-10.373,18.884-10.373
			c1.33,0,2.66,0.798,2.927,2.128c0,3.724-2.66,6.383-5.319,8.777c-5.853,5.319-13.299,7.979-21.279,7.979
			c-16.224,0-30.853-9.575-30.853-27.129c0-17.555,16.49-28.459,32.715-28.459c6.383,0,12.768,1.33,18.087,4.256
			c1.33,0.798,3.723,1.596,3.723,3.458c0,1.064-0.266,1.596-0.531,2.66L902.854,335.715z"/>
		<path fill="#0074A7" d="M933.441,370.026c-9.576,0-19.949-5.053-19.949-15.958c0-13.033,15.161-18.618,26.066-18.618
			c2.659,0,5.053,0,7.713,0.266c-2.128-5.851-4.787-11.969-12.235-11.969c-7.446,0-10.639,5.32-14.096,5.32
			c-1.331,0-2.66-1.064-2.66-2.394c0-8.245,15.427-12.501,21.81-12.501c14.363,0,19.416,7.979,23.406,20.48l5.586,18.353
			c0.797,2.926,3.457,7.713,6.649,7.713c1.063,0,2.127-0.798,2.659-1.33c1.33,1.064,1.861,2.394,1.861,3.99
			c0,5.32-7.713,6.383-11.702,6.383c-6.117,0-9.842-2.127-13.299-6.916C948.867,367.367,941.42,370.026,933.441,370.026
			 M951.793,346.088c-1.33-3.191-3.724-3.99-6.649-3.99c-5.319,0-11.437,2.926-11.437,8.777c0,6.118,5.585,9.841,11.171,9.841
			c3.458,0,9.575-1.33,9.575-5.852C954.453,352.472,952.857,348.482,951.793,346.088"/>
		<path fill="#0074A7" d="M1022.543,315.768c10.372,0,14.628,8.777,17.022,17.288l5.319,19.416
			c1.596,5.586,1.861,7.182,6.383,10.373c1.064,0.798,1.862,1.596,1.862,2.926c0,2.66-2.394,3.458-4.787,3.458h-21.544
			c-1.862,0-4.256-0.798-4.256-3.191c0-3.99,6.383-3.99,6.383-8.512c0-1.064-0.266-2.394-0.532-3.458l-4.255-16.225
			c-1.064-4.255-3.191-11.437-8.777-11.437c-6.384,0-7.447,7.713-7.447,12.235v7.979c0,3.99,0,7.979,0.798,11.703
			c0.798,3.458,6.117,3.989,6.117,7.713c0,2.66-3.191,3.191-5.319,3.191h-19.15c-2.128,0-5.319-0.532-5.319-3.191
			c0-4.522,6.915-1.862,6.915-15.959c0-3.724,0-7.713,0-11.437c0-9.841-7.182-6.117-7.182-10.373c0-1.064,1.064-2.66,2.128-3.191
			l16.491-8.777c0.532-0.266,1.33-0.532,1.862-0.798c2.393,0,2.925,2.66,2.925,4.521v3.724
			C1012.436,319.757,1016.425,315.768,1022.543,315.768"/>
		<path fill="#0074A7" d="M1074.408,370.026c-9.575,0-19.949-5.053-19.949-15.958c0-13.033,15.162-18.618,26.066-18.618
			c2.395,0,5.054,0,7.713,0.266c-2.127-5.851-4.787-11.969-12.234-11.969s-10.639,5.32-14.097,5.32c-1.33,0-2.66-1.064-2.66-2.394
			c0-8.245,15.427-12.501,21.811-12.501c14.362,0,19.682,7.979,23.405,20.48l5.586,18.353c0.798,2.926,3.457,7.713,6.649,7.713
			c1.063,0,2.128-0.798,2.925-1.33c1.064,1.064,1.862,2.394,1.862,3.99c0,5.32-7.713,6.383-11.702,6.383
			c-6.117,0-9.842-2.127-13.3-6.916C1089.568,367.367,1082.388,370.026,1074.408,370.026 M1090.101,346.088
			c-1.33-3.191-3.724-3.99-6.649-3.99c-5.32,0-11.438,2.926-11.438,8.777c0,6.118,5.586,9.841,11.172,9.841
			c3.457,0,9.574-1.33,9.574-5.852C1092.76,352.472,1091.43,348.482,1090.101,346.088"/>
	</g>
	<g>
		<polygon fill="#0074A7" points="216.104,535.464 216.104,490.247 226.211,490.247 226.211,526.687 245.894,526.687 
			245.894,535.464 		"/>
		<path fill="#0074A7" d="M267.97,531.739c-1.596,1.597-3.192,2.66-4.522,3.458s-2.925,1.064-4.788,1.064
			c-2.394,0-4.521-0.798-6.117-2.395c-1.596-1.596-2.394-3.723-2.394-6.649c0-3.724,1.33-6.649,3.989-8.777
			s6.916-3.723,12.235-4.521v-2.659c0-1.064-0.266-1.862-1.064-2.394c-0.798-0.532-1.862-1.064-3.191-1.064
			c-1.064,0-2.394,0.267-3.724,0.798c-1.33,0.532-2.66,1.33-3.989,2.66l-3.99-5.054c1.596-1.33,3.724-2.394,5.585-3.192
			c1.862-0.798,4.256-1.063,6.649-1.063c3.99,0,7.181,0.798,9.31,2.926c2.127,1.862,3.191,4.787,3.191,8.512v14.097
			c0,0.531,0.266,1.063,0.532,1.33c0.266,0.266,0.532,0.531,1.063,0.798v6.383c-0.266,0-0.266,0-0.532,0c-0.266,0-0.532,0-0.798,0
			c-1.862,0-3.192-0.266-4.521-1.063C269.831,534.134,268.767,533.069,267.97,531.739 M266.906,518.707
			c-2.394,0.266-4.522,1.063-5.852,2.394c-1.596,1.33-2.128,2.659-2.128,4.521c0,1.064,0.266,2.128,1.064,2.926
			c0.532,0.798,1.596,1.064,2.66,1.064c1.33,0,2.66-0.532,3.458-1.862c0.798-1.33,1.33-2.926,1.33-5.053L266.906,518.707
			L266.906,518.707z"/>
		<path fill="#0074A7" d="M298.557,527.484l7.713-5.586c1.33,2.128,2.66,3.724,3.99,4.788c1.33,1.063,2.926,1.329,4.787,1.329
			c1.596,0,3.192-0.531,3.99-1.329c1.064-0.799,1.596-2.128,1.596-3.458s-0.532-2.394-1.33-3.191
			c-0.798-1.064-2.128-1.862-3.724-2.395c-0.532-0.266-1.596-0.532-2.66-1.063c-4.256-1.596-7.181-3.191-8.511-4.256
			c-1.596-1.33-2.926-2.926-3.724-4.521s-1.33-3.458-1.33-5.585c0-3.99,1.33-7.182,3.99-9.575c2.66-2.395,6.383-3.725,10.905-3.725
			c3.191,0,6.117,0.798,8.511,2.128c2.394,1.33,4.522,3.458,6.118,6.118l-7.181,5.054c-1.064-1.596-2.394-2.926-3.724-3.725
			c-1.33-0.798-2.926-1.329-4.522-1.329c-1.596,0-2.66,0.266-3.458,1.063s-1.33,1.596-1.33,2.926c0,1.064,0.532,2.128,1.33,2.926
			s2.128,1.862,3.99,2.394c0.798,0.267,1.862,0.799,3.191,1.33c3.99,1.596,6.649,2.926,7.979,3.989
			c1.596,1.33,2.66,2.66,3.458,4.521c0.798,1.862,1.33,3.725,1.33,5.853c0,4.255-1.33,7.447-4.255,10.106
			c-2.926,2.66-6.65,3.724-11.171,3.724c-3.458,0-6.649-0.798-9.31-2.394C302.813,532.804,300.685,530.41,298.557,527.484"/>
		<path fill="#0074A7" d="M353.88,531.739c-1.596,1.597-3.192,2.66-4.522,3.458c-1.595,0.798-2.925,1.064-4.788,1.064
			c-2.394,0-4.521-0.798-6.117-2.395c-1.596-1.596-2.394-3.723-2.394-6.649c0-3.724,1.33-6.649,3.99-8.777
			c2.659-2.128,6.915-3.723,12.234-4.521v-2.659c0-1.064-0.532-1.862-1.33-2.394c-0.798-0.532-1.862-1.064-3.191-1.064
			c-1.064,0-2.394,0.267-3.724,0.798c-1.33,0.532-2.66,1.33-3.989,2.66l-3.99-5.054c1.862-1.33,3.724-2.394,5.585-3.192
			c1.862-0.798,4.256-1.063,6.65-1.063c3.989,0,7.182,0.798,9.309,2.926c2.128,1.862,3.192,4.787,3.192,8.512v14.097
			c0,0.531,0.266,1.063,0.266,1.33c0.266,0.266,0.798,0.531,1.064,0.798v6.383c-0.266,0-0.266,0-0.532,0s-0.532,0-0.798,0
			c-1.596,0-3.192-0.266-4.522-1.063C355.741,534.134,354.678,533.069,353.88,531.739 M352.816,518.707
			c-2.394,0.266-4.522,1.063-5.852,2.394c-1.33,1.33-2.128,2.659-2.128,4.521c0,1.064,0.266,2.128,1.064,2.926
			c0.532,0.798,1.596,1.064,2.394,1.064c1.33,0,2.66-0.532,3.458-1.862c0.798-1.33,1.33-2.926,1.33-5.053L352.816,518.707
			L352.816,518.707z"/>
		<rect x="369.041" y="488.917" fill="#0074A7" width="8.511" height="46.28"/>
		<path fill="#0074A7" d="M411.863,502.482v32.981h-8.511v-6.384c-1.596,2.394-3.192,4.256-5.054,5.319
			c-1.595,1.064-3.458,1.596-5.319,1.596c-2.127,0-3.989-0.531-5.053-1.861c-1.33-1.33-1.862-3.192-1.862-5.319v-26.332h8.512v20.48
			c0,2.127,0.266,3.457,0.532,4.255c0.532,0.532,1.064,0.798,2.394,0.798c0.797,0,1.595-0.266,2.659-0.798
			c1.064-0.531,2.128-1.33,3.192-2.394v-22.342H411.863z"/>
		<path fill="#0074A7" d="M446.705,535.464h-8.51v-5.852c-1.596,2.394-2.926,3.989-4.522,5.053
			c-1.596,1.064-3.191,1.597-5.319,1.597c-3.192,0-5.319-1.064-6.383-3.192s-1.862-6.915-1.862-14.097s0.532-11.969,1.596-14.097
			c1.064-2.128,3.192-3.191,6.384-3.191c2.128,0,3.989,0.532,5.585,1.596c1.596,1.063,3.192,2.66,4.522,5.054v-19.15h8.51V535.464z
			 M438.194,511.525c-1.33-0.798-2.394-1.33-3.458-1.862c-1.064-0.266-1.861-0.531-2.394-0.531c-1.33,0-2.128,0.531-2.66,1.596
			c-0.532,1.063-0.798,3.724-0.798,8.245s0.266,7.182,0.798,8.245c0.532,1.064,1.33,1.597,2.66,1.597
			c0.532,0,1.595-0.267,2.394-0.532c1.064-0.267,2.128-1.064,3.458-1.862V511.525L438.194,511.525z"/>
		<path fill="#0074A7" d="M456.014,506.738h9.841v9.574h-9.841V506.738z M456.014,525.888h9.841v9.576h-9.841V525.888z"/>
		<polygon fill="#0074A7" points="494.581,535.464 494.581,490.247 504.156,490.247 518.784,517.643 518.519,490.247 
			527.296,490.247 527.296,535.464 519.05,535.464 503.092,504.876 503.358,535.464 		"/>
		<path fill="#0074A7" d="M563.203,502.482v32.981h-8.512v-6.384c-1.596,2.394-3.191,4.256-5.053,5.319
			c-1.596,1.064-3.457,1.596-5.319,1.596c-2.128,0-3.724-0.531-5.054-1.861s-1.861-3.192-1.861-5.319v-26.332h8.51v20.48
			c0,2.127,0.267,3.457,0.532,4.255c0.267,0.532,1.064,0.798,2.394,0.798c0.798,0,1.596-0.266,2.66-0.798
			c1.063-0.531,1.862-1.33,3.191-2.394v-22.342H563.203z"/>
		<path fill="#0074A7" d="M594.854,533.867c-1.862,0.798-3.724,1.33-5.586,1.862c-1.596,0.266-3.458,0.532-5.054,0.532
			c-4.255,0-7.447-1.064-9.575-3.458c-2.127-2.394-3.458-5.586-3.458-10.106v-7.714c0-4.256,1.064-7.713,2.926-9.842
			c2.128-2.128,5.054-3.457,8.777-3.457c3.458,0,6.383,1.063,8.511,3.191s2.926,5.054,2.926,8.777v7.182h-15.427v2.925
			c0,1.862,0.532,3.458,1.596,4.522c1.064,1.063,2.66,1.596,4.787,1.596c1.064,0,2.394-0.266,3.724-0.532
			c1.33-0.266,2.66-0.798,4.256-1.596L594.854,533.867z M579.427,515.781h7.979v-2.926c0-1.862-0.266-3.192-1.064-4.256
			c-0.798-0.798-1.596-1.329-2.926-1.329c-1.329,0-2.128,0.531-2.925,1.329c-0.798,1.063-1.064,2.128-1.064,3.99V515.781
			L579.427,515.781z"/>
		<path fill="#0074A7" d="M600.705,531.474l3.989-5.852c1.064,1.33,2.395,2.394,3.458,2.926s2.127,1.064,3.191,1.064
			c1.064,0,1.862-0.267,2.66-0.798c0.798-0.532,1.064-1.064,1.064-1.862c0-1.064-1.33-2.394-4.256-4.255
			c-1.063-0.532-1.862-1.064-2.394-1.33c-2.926-1.862-4.787-3.458-5.851-4.788s-1.596-3.191-1.596-5.054
			c0-2.926,1.064-5.319,3.191-6.915c2.128-1.862,4.788-2.659,7.979-2.659c1.596,0,2.926,0.266,4.521,0.797
			c1.596,0.532,3.458,1.33,5.32,2.394l-3.989,5.852c-1.064-0.798-1.863-1.595-2.926-2.127c-1.064-0.532-2.128-0.532-3.192-0.532
			s-1.862,0.266-2.394,0.532c-0.532,0.266-0.797,1.063-0.797,1.595c0,1.064,1.33,2.129,4.255,3.99
			c0.532,0.267,0.798,0.532,1.064,0.532c0.266,0.266,0.532,0.532,1.064,0.798c2.127,1.329,3.989,2.394,5.053,3.457
			c0.798,0.799,1.596,1.862,2.128,2.927c0.532,1.063,0.798,2.394,0.798,3.723c0,3.192-1.064,5.586-3.192,7.714
			c-2.128,1.862-4.788,2.926-8.246,2.926c-1.862,0-3.724-0.266-5.585-1.063C604.163,534.134,602.301,533.069,600.705,531.474"/>
		<path fill="#0074A7" d="M639.537,521.898c0,2.66,0.266,4.521,1.064,5.586c0.798,0.798,2.128,1.33,3.99,1.33
			c0.266,0,0.266,0,0.532,0c0.265,0,0.532,0,0.532,0v7.181c-0.532,0-0.798,0-1.33,0s-1.33,0-2.128,0
			c-3.99,0-6.915-0.798-8.777-2.394c-1.595-1.596-2.659-4.521-2.659-8.512v-16.224h-4.788v-6.384h4.788v-11.969h8.511v11.703h6.117
			v6.383h-6.117L639.537,521.898L639.537,521.898z"/>
		<path fill="#0074A7" d="M653.102,535.464v-32.981h7.979v7.181c1.33-2.659,2.926-4.521,4.787-5.851
			c1.596-1.33,3.458-1.861,5.32-2.128v11.171c-2.128,0-3.99,0.532-5.585,0.798c-1.596,0.532-2.926,1.33-3.99,2.128v19.416
			L653.102,535.464L653.102,535.464z"/>
		<path fill="#0074A7" d="M701.775,521.633c0,4.787-1.063,8.512-3.191,10.904c-2.128,2.395-5.319,3.458-9.575,3.458
			c-4.255,0-7.447-1.063-9.575-3.458c-2.128-2.393-3.192-6.117-3.192-10.904v-5.585c0-4.788,1.064-8.512,3.192-10.906
			c2.127-2.394,5.319-3.457,9.575-3.457c4.256,0,7.447,1.063,9.575,3.457c2.127,2.395,3.191,6.118,3.191,10.906V521.633z
			 M684.753,518.973c0,4.521,0.266,7.447,0.798,8.512c0.532,1.063,1.596,1.861,3.191,1.861c1.596,0,2.66-0.531,3.192-1.596
			c0.532-1.063,0.798-3.99,0.798-8.512c0-4.521-0.266-7.447-0.798-8.511c-0.532-1.064-1.596-1.596-3.192-1.596
			c-1.595,0-2.659,0.531-3.191,1.596C685.286,511.525,684.753,514.186,684.753,518.973"/>
		<path fill="#0074A7" d="M727.842,490.247h11.437c3.989,0,6.916,0.267,9.043,0.532c2.127,0.266,3.723,0.798,5.053,1.596
			c2.128,1.064,3.724,2.66,4.787,4.788c1.064,2.128,1.597,4.521,1.597,7.181c0,2.927-0.532,5.319-1.597,7.182
			c-1.063,2.128-2.659,3.724-4.787,4.787c-1.33,0.798-2.926,1.33-5.053,1.597c-2.128,0.266-5.054,0.531-8.777,0.531h-1.33v16.757
			h-10.373V490.247L727.842,490.247z M737.948,497.694v13.033h2.66c3.191,0,5.585-0.532,6.916-1.33
			c1.33-1.063,1.862-2.659,1.862-5.054c0-2.393-0.532-4.255-1.862-5.053c-1.33-1.064-3.458-1.33-6.916-1.33L737.948,497.694
			L737.948,497.694z"/>
		<path fill="#0074A7" d="M765.078,535.464v-32.981h7.979v7.181c1.33-2.659,2.927-4.521,4.522-5.851
			c1.596-1.33,3.457-1.861,5.319-2.128v11.171c-2.128,0-3.989,0.532-5.585,0.798c-1.597,0.532-2.927,1.33-3.989,2.128v19.416
			L765.078,535.464L765.078,535.464z"/>
		<path fill="#0074A7" d="M813.486,521.633c0,4.787-1.064,8.512-3.192,10.904c-2.127,2.395-5.319,3.458-9.575,3.458
			s-7.447-1.063-9.575-3.458c-2.128-2.393-3.191-6.117-3.191-10.904v-5.585c0-4.788,1.063-8.512,3.191-10.906
			c2.128-2.394,5.319-3.457,9.575-3.457s7.448,1.063,9.575,3.457c2.128,2.395,3.192,6.118,3.192,10.906V521.633z M796.729,518.973
			c0,4.521,0.266,7.447,0.798,8.512c0.532,1.063,1.596,1.861,3.191,1.861s2.66-0.531,3.191-1.596
			c0.532-1.063,0.799-3.99,0.799-8.512c0-4.521-0.267-7.447-0.799-8.511c-0.531-1.064-1.596-1.596-3.191-1.596
			s-2.659,0.531-3.191,1.596C796.995,511.525,796.729,514.186,796.729,518.973"/>
		<path fill="#0074A7" d="M819.337,538.389c0.532,0,0.798,0.266,1.33,0.266s0.798,0.267,1.33,0.267c1.596,0,2.926-0.532,3.989-1.596
			c1.064-1.063,1.862-2.394,2.128-4.521l-9.575-30.321h8.777l5.054,18.353l3.989-18.353h8.777l-9.31,34.312
			c-0.798,3.19-2.394,5.585-4.255,7.181c-1.862,1.596-4.521,2.394-7.979,2.394c-0.798,0-1.33,0-2.128-0.266
			c-0.798,0-1.33-0.267-2.128-0.532V538.389L819.337,538.389z"/>
		<path fill="#0074A7" d="M874.66,533.867c-1.862,0.798-3.724,1.33-5.319,1.862c-1.862,0.266-3.458,0.532-5.054,0.532
			c-4.256,0-7.447-1.064-9.575-3.458s-3.457-5.586-3.457-10.106v-7.714c0-4.256,1.063-7.713,2.925-9.842
			c2.128-2.128,5.054-3.457,8.777-3.457c3.458,0,6.384,1.063,8.511,3.191c2.128,2.128,3.192,5.054,3.192,8.777v7.182h-15.161v2.925
			c0,1.862,0.532,3.458,1.597,4.522c1.063,1.063,2.66,1.596,4.787,1.596c1.063,0,2.394-0.266,3.724-0.532
			c1.33-0.266,2.66-0.798,4.256-1.596L874.66,533.867z M859.233,515.781h7.979v-2.926c0-1.862-0.267-3.192-1.064-4.256
			c-0.798-0.798-1.595-1.329-2.925-1.329s-2.128,0.531-2.926,1.329c-0.799,1.063-1.064,2.128-1.064,3.99V515.781z"/>
		<path fill="#0074A7" d="M898.864,512.058c0-1.064-0.267-1.862-0.798-2.66c-0.532-0.531-1.33-1.063-2.395-1.063
			c-1.33,0-2.393,0.532-2.925,1.596s-0.798,2.66-0.798,4.788v8.245c0,2.127,0.266,3.724,1.063,4.521
			c0.532,0.798,1.597,1.33,2.927,1.33c1.063,0,1.861-0.267,2.66-1.064c0.531-0.798,1.063-1.596,1.063-2.926c0,0,0-0.266,0-0.532
			c0-0.266,0-0.266,0-0.266h7.448v1.063c0,3.458-1.063,6.384-2.926,7.979s-4.787,2.66-8.512,2.66c-4.256,0-7.181-1.064-9.309-3.192
			c-2.128-2.127-2.926-5.319-2.926-9.84v-8.246c0-3.99,1.064-7.181,3.191-9.31c2.128-2.128,5.054-3.19,9.043-3.19
			c3.458,0,6.117,0.797,7.979,2.393c1.862,1.862,2.926,4.256,2.926,7.182v0.798C906.046,512.058,898.864,512.058,898.864,512.058z"
			/>
		<path fill="#0074A7" d="M924.132,521.898c0,2.66,0.266,4.521,1.063,5.586c0.798,0.798,2.128,1.33,3.989,1.33c0,0,0.267,0,0.532,0
			s0.532,0,0.532,0v7.181c-0.532,0-0.798,0-1.33,0s-1.329,0-2.127,0c-4.257,0-7.182-0.798-8.777-2.394
			c-1.597-1.596-2.395-4.521-2.395-8.512v-16.224h-4.787v-6.384h4.787v-11.969h8.512v11.703h6.117v6.383h-6.117V521.898
			L924.132,521.898z"/>
		<path fill="#0074A7" d="M962.433,521.633c0,4.787-1.064,8.512-3.192,10.904c-2.128,2.395-5.319,3.458-9.574,3.458
			c-4.256,0-7.448-1.063-9.576-3.458c-2.128-2.393-3.191-6.117-3.191-10.904v-5.585c0-4.788,1.063-8.512,3.191-10.906
			c2.128-2.394,5.32-3.457,9.576-3.457c4.255,0,7.446,1.063,9.574,3.457c2.128,2.395,3.192,6.118,3.192,10.906V521.633z
			 M945.41,518.973c0,4.521,0.266,7.447,0.798,8.512c0.531,1.063,1.596,1.861,3.191,1.861s2.659-0.531,3.191-1.596
			c0.532-1.063,0.798-3.99,0.798-8.512c0-4.521-0.266-7.447-0.798-8.511c-0.532-1.064-1.596-1.596-3.191-1.596
			s-2.66,0.531-3.191,1.596C945.676,511.525,945.41,514.186,945.41,518.973"/>
		<polygon fill="#0074A7" points="988.231,535.464 988.231,490.247 1018.819,490.247 1018.819,498.759 998.339,498.759 
			998.339,507.004 1012.436,507.004 1012.436,515.781 998.339,515.781 998.339,526.687 1020.148,526.687 1020.148,535.464 		"/>
		<path fill="#0074A7" d="M1053.928,535.464h-8.511v-5.852c-1.597,2.394-2.927,3.989-4.522,5.053
			c-1.596,1.064-3.191,1.597-5.319,1.597c-3.192,0-5.319-1.064-6.384-3.192c-1.063-2.128-1.861-6.915-1.861-14.097
			s0.531-11.969,1.596-14.097s3.192-3.191,6.384-3.191c2.128,0,3.989,0.532,5.319,1.596c1.596,1.063,2.926,2.66,4.521,5.054v-19.15
			h8.512v46.28H1053.928z M1045.417,511.525c-1.33-0.798-2.395-1.33-3.458-1.862c-1.063-0.266-1.861-0.531-2.394-0.531
			c-1.33,0-2.128,0.531-2.66,1.596c-0.532,1.063-0.798,3.724-0.798,8.245s0.266,7.182,0.798,8.245
			c0.532,1.064,1.33,1.597,2.66,1.597c0.532,0,1.595-0.267,2.394-0.532c1.064-0.267,2.128-1.064,3.458-1.862V511.525z"/>
		<path fill="#0074A7" d="M1062.439,488.917h8.511v7.447h-8.511V488.917z M1062.439,502.482h8.511v32.981h-8.511V502.482z"/>
		<path fill="#0074A7" d="M1089.834,521.898c0,2.66,0.267,4.521,1.064,5.586c0.798,0.798,2.128,1.33,3.99,1.33c0,0,0.266,0,0.531,0
			s0.532,0,0.532,0v7.181c-0.532,0-0.798,0-1.33,0s-1.33,0-2.128,0c-4.256,0-7.182-0.798-8.776-2.394
			c-1.597-1.596-2.395-4.521-2.395-8.512v-16.224h-4.787v-6.384h4.787v-11.969h8.512v11.703h6.117v6.383h-6.117L1089.834,521.898
			L1089.834,521.898z"/>
		<path fill="#0074A7" d="M1128.135,521.633c0,4.787-1.064,8.512-3.191,10.904c-2.128,2.395-5.32,3.458-9.575,3.458
			s-7.447-1.063-9.575-3.458c-2.127-2.393-3.191-6.117-3.191-10.904v-5.585c0-4.788,1.064-8.512,3.191-10.906
			c2.128-2.394,5.32-3.457,9.575-3.457s7.447,1.063,9.575,3.457c2.127,2.395,3.191,6.118,3.191,10.906V521.633z M1111.113,518.973
			c0,4.521,0.265,7.447,0.797,8.512c0.532,1.063,1.596,1.861,3.192,1.861c1.596,0,2.659-0.531,3.191-1.596
			c0.532-1.063,0.798-3.99,0.798-8.512c0-4.521-0.266-7.447-0.798-8.511c-0.532-1.064-1.596-1.596-3.191-1.596
			c-1.597,0-2.66,0.531-3.192,1.596C1111.379,511.525,1111.113,514.186,1111.113,518.973"/>
		<path fill="#0074A7" d="M1135.316,535.464v-32.981h7.979v7.181c1.329-2.659,2.926-4.521,4.521-5.851
			c1.597-1.33,3.459-1.861,5.32-2.128v11.171c-2.128,0-3.989,0.532-5.585,0.798c-1.597,0.532-2.927,1.33-3.99,2.128v19.416
			L1135.316,535.464L1135.316,535.464z"/>
		<path fill="#0074A7" d="M1159.521,488.917h8.511v7.447h-8.511V488.917z M1159.521,502.482h8.511v32.981h-8.511V502.482z"/>
		<path fill="#0074A7" d="M1192.501,531.739c-1.596,1.597-3.191,2.66-4.521,3.458c-1.596,0.798-2.926,1.064-4.788,1.064
			c-2.659,0-4.521-0.798-6.117-2.395c-1.596-1.596-2.393-3.723-2.393-6.649c0-3.724,1.328-6.649,3.988-8.777
			s6.916-3.723,12.235-4.521v-2.659c0-1.064-0.266-1.862-1.064-2.394c-0.797-0.532-1.861-1.064-3.191-1.064
			c-1.063,0-2.394,0.267-3.724,0.798c-1.33,0.532-2.659,1.33-3.989,2.66l-3.99-5.054c1.597-1.33,3.724-2.394,5.585-3.192
			c2.129-0.798,4.257-1.063,6.65-1.063c3.989,0,7.181,0.798,9.309,2.926c2.128,1.862,3.192,4.787,3.192,8.512v14.097
			c0,0.531,0.266,1.063,0.532,1.33c0.266,0.266,0.797,0.531,1.063,0.798v6.383c-0.266,0-0.266,0-0.532,0c-0.266,0-0.531,0-0.798,0
			c-1.862,0-3.192-0.266-4.521-1.063C1194.363,534.134,1193.299,533.069,1192.501,531.739 M1191.438,518.707
			c-2.394,0.266-4.521,1.063-5.852,2.394c-1.596,1.33-2.127,2.659-2.127,4.521c0,1.064,0.265,2.128,1.063,2.926
			c0.532,0.798,1.596,1.064,2.66,1.064c1.33,0,2.659-0.532,3.458-1.862c0.798-1.33,1.329-2.926,1.329-5.053v-3.99H1191.438z"/>
		<rect x="1207.662" y="488.917" fill="#0074A7" width="8.511" height="46.28"/>
		<rect x="1226.015" y="525.888" fill="#0074A7" width="9.841" height="9.576"/>
	</g>
</g>
<g>
	<path d="M1036.107,441.574h2.394v16.756c0,2.128-0.532,3.99-1.596,5.32c-1.063,1.329-2.659,2.128-4.521,2.128
		c-1.33,0-2.394-0.267-3.458-0.799c-1.064-0.531-1.861-1.596-2.394-2.659l1.861-1.064c1.064,1.596,2.395,2.395,3.99,2.395
		c1.064,0,2.128-0.532,2.926-1.33c0.798-0.799,1.064-2.129,1.064-3.99v-16.756H1036.107z"/>
	<path d="M1044.353,455.671h4.521v2.394h-4.521V455.671z"/>
	<path d="M1061.641,465.778c-2.394,0-4.256-0.799-5.851-2.66c-1.862-2.128-2.66-5.319-2.66-9.575s0.798-7.447,2.66-9.841
		c1.329-1.862,3.191-2.66,5.585-2.66c1.861,0,3.458,0.532,4.788,1.596c1.329,1.064,2.394,2.66,2.925,4.521
		c0.532,1.862,1.064,3.99,1.064,6.384c0,1.861-0.267,3.458-0.532,5.054c-0.267,1.595-1.064,2.925-1.596,3.724
		c-0.532,0.798-1.33,1.596-2.128,2.128c-0.798,0.531-1.596,0.798-2.128,1.063C1063.236,465.778,1062.173,465.778,1061.641,465.778z
		 M1061.641,463.384c1.863,0,3.458-1.063,4.256-2.926c0.798-1.861,1.596-4.256,1.596-7.182c0-2.925-0.531-5.319-1.596-7.181
		c-1.063-1.861-2.394-2.66-4.256-2.66c-1.861,0-3.457,1.064-4.521,2.926c-1.063,1.862-1.596,4.256-1.596,7.182
		c0,2.128,0.267,3.989,0.798,5.586c0.532,1.595,1.33,2.659,2.394,3.457C1059.779,463.384,1060.844,463.384,1061.641,463.384z"/>
	<path d="M1081.59,465.778c-2.395,0-4.256-0.799-5.852-2.66c-1.862-2.128-2.66-5.319-2.66-9.575s0.798-7.447,2.66-9.841
		c1.329-1.862,3.191-2.66,5.585-2.66c1.861,0,3.458,0.532,4.788,1.596c1.329,1.064,2.394,2.66,2.926,4.521
		c0.531,1.862,1.063,3.99,1.063,6.384c0,1.861-0.267,3.458-0.532,5.054c-0.267,1.595-1.063,2.925-1.596,3.724
		c-0.532,0.798-1.33,1.596-2.128,2.128c-0.798,0.531-1.596,0.798-2.128,1.063C1083.185,465.778,1082.121,465.778,1081.59,465.778z
		 M1081.59,463.384c1.861,0,3.457-1.063,4.255-2.926c0.798-1.861,1.596-4.256,1.596-7.182c0-2.925-0.532-5.319-1.596-7.181
		s-2.394-2.66-4.255-2.66c-1.862,0-3.459,1.064-4.522,2.926c-1.063,1.862-1.596,4.256-1.596,7.182c0,2.128,0.267,3.989,0.798,5.586
		c0.532,1.595,1.33,2.659,2.394,3.457C1079.728,463.384,1080.791,463.384,1081.59,463.384z"/>
	<path d="M1100.474,441.574h2.394v21.544h3.724v2.128h-10.373v-2.128h4.256v-18.884c-2.128,0.531-3.458,0.798-4.256,0.798v-1.862
		C1098.079,442.904,1099.676,442.372,1100.474,441.574z"/>
	<path d="M1113.772,447.691c0.532-1.33,1.063-2.394,1.596-3.191c0.798-1.064,1.862-2.128,3.191-2.66
		c1.33-0.532,2.394-0.798,3.724-0.798c1.862,0,3.725,0.798,5.054,2.128c1.33,1.33,2.128,2.926,2.128,5.054
		c0,1.063-0.266,2.128-0.532,2.926c-0.266,0.798-1.063,1.595-1.862,2.394c-0.797,0.798-2.394,1.861-4.521,3.458
		c-2.128,1.596-3.458,2.659-4.256,3.723c-0.798,1.064-1.33,1.862-1.862,2.66h13.299v2.128h-16.225v-1.861
		c0-0.532,0.267-1.064,0.799-1.862c0.531-1.064,1.596-2.128,2.659-3.191c1.064-1.064,2.659-2.395,4.521-3.724
		c1.33-1.064,2.395-1.862,2.927-2.394c0.797-0.798,1.329-1.33,1.596-2.128c0.266-0.799,0.531-1.33,0.531-2.128
		c0-1.33-0.531-2.395-1.33-3.458c-0.797-1.063-1.861-1.33-3.191-1.33s-2.395,0.532-3.458,1.33s-1.861,2.128-2.659,3.724
		L1113.772,447.691z"/>
	<path d="M1141.435,465.778c-2.395,0-4.257-0.799-5.853-2.66c-1.861-2.128-2.66-5.319-2.66-9.575s0.799-7.447,2.66-9.841
		c1.33-1.862,3.192-2.66,5.586-2.66c1.861,0,3.457,0.532,4.787,1.596c1.33,1.064,2.394,2.66,2.926,4.521
		c0.532,1.862,1.064,3.99,1.064,6.384c0,1.861-0.267,3.458-0.532,5.054c-0.267,1.595-1.064,2.925-1.597,3.724
		c-0.531,0.798-1.329,1.596-2.127,2.128c-0.798,0.531-1.596,0.798-2.128,1.063C1143.029,465.778,1141.966,465.778,1141.435,465.778z
		 M1141.435,463.384c1.861,0,3.457-1.063,4.255-2.926c0.798-1.861,1.596-4.256,1.596-7.182c0-2.925-0.532-5.319-1.596-7.181
		c-1.064-1.861-2.394-2.66-4.255-2.66c-1.863,0-3.458,1.064-4.522,2.926c-1.064,1.862-1.596,4.256-1.596,7.182
		c0,2.128,0.266,3.989,0.798,5.586c0.532,1.595,1.33,2.659,2.394,3.457C1139.572,463.384,1140.636,463.384,1141.435,463.384z"/>
	<path d="M1163.775,452.744c1.596,0.532,2.66,1.064,3.458,1.597c1.064,0.798,1.862,1.33,2.395,2.394
		c0.532,1.064,0.797,1.596,0.797,2.66c0,1.596-0.797,3.191-2.127,4.256c-1.597,1.329-3.99,2.128-6.915,2.128
		c-2.927,0-5.054-0.532-6.385-1.862c-1.329-1.33-2.393-2.66-2.393-4.521c0-1.064,0.266-1.862,0.798-2.66s1.329-1.596,2.127-2.394
		c0.798-0.532,1.596-1.064,2.926-1.33c-1.596-0.798-2.926-1.596-3.724-2.659c-0.798-1.064-1.064-1.862-1.064-3.192
		c0-1.596,0.799-2.925,2.129-3.989c1.329-1.064,3.457-1.862,5.851-1.862c2.395,0,4.256,0.532,5.585,1.862
		c1.33,1.33,2.129,2.659,2.129,4.255c0,1.064-0.532,2.395-1.33,3.458C1167.232,451.947,1165.371,452.213,1163.775,452.744z
		 M1160.318,453.543c-1.862,0.531-3.192,1.596-3.99,2.659c-0.798,1.064-1.33,2.128-1.33,3.192c0,1.063,0.532,2.127,1.596,2.926
		c1.064,0.798,2.66,1.33,4.788,1.33c1.33,0,2.394-0.267,3.458-0.532c1.063-0.267,1.861-1.064,2.128-1.597
		c0.532-0.531,0.532-1.33,0.532-1.861c0-0.798-0.268-1.596-1.064-2.394C1165.638,455.937,1163.51,454.873,1160.318,453.543z
		 M1161.383,451.947c1.595-0.798,2.659-1.33,3.191-1.596c0.531-0.267,1.063-0.799,1.329-1.33c0.267-0.532,0.532-1.064,0.532-1.597
		c0-1.063-0.532-1.861-1.33-2.659s-2.127-1.063-3.989-1.063c-1.596,0-2.926,0.266-3.99,1.063c-1.063,0.798-1.329,1.596-1.329,2.659
		c0,0.799,0.266,1.597,1.064,2.128C1157.658,450.085,1159.254,450.883,1161.383,451.947z"/>
	<path d="M1174.148,444.766c1.064-1.33,2.129-2.128,3.458-2.66c1.33-0.531,2.66-0.798,3.99-0.798c2.127,0,3.989,0.532,5.319,1.862
		s2.128,2.659,2.128,4.255c0,1.064-0.267,2.128-1.064,2.927c-0.798,0.798-1.596,1.861-3.191,2.393
		c1.329,0.532,2.394,1.064,3.191,1.862c1.064,1.064,1.596,2.395,1.596,3.99c0,1.063-0.267,2.394-1.064,3.457
		c-0.798,1.064-1.595,2.128-2.925,2.66s-2.66,1.064-4.256,1.064c-1.33,0-2.394-0.267-3.724-0.799
		c-1.33-0.531-2.128-1.063-2.925-1.861c-0.533-0.532-1.064-1.33-1.597-2.128l1.861-1.33c1.063,1.33,2.128,2.128,3.192,2.926
		c1.063,0.798,2.128,0.798,3.191,0.798c1.597,0,2.926-0.532,3.99-1.33c1.063-0.798,1.596-2.128,1.596-3.191
		c0-0.798-0.267-1.596-0.799-2.394c-0.531-0.798-1.596-1.33-2.658-1.862c-1.064-0.532-2.66-0.798-3.99-0.798
		c-0.267,0-0.799,0-1.33,0l0.266-2.394H1180c2.395,0,3.99-0.532,5.054-1.33s1.596-1.861,1.596-2.926
		c0-1.063-0.532-1.861-1.329-2.659c-0.799-0.798-2.129-1.33-3.458-1.33c-1.862,0-3.724,0.798-5.585,2.659L1174.148,444.766z"/>
	<path d="M1195.427,441.574h12.235l-0.267,2.128h-10.373l-0.532,7.713c1.862-1.33,3.458-2.128,5.32-2.128
		c1.861,0,3.457,0.798,4.787,2.128c1.33,1.329,2.127,3.458,2.127,5.852c0,1.596-0.265,2.925-1.063,4.255
		c-0.799,1.33-1.597,2.395-2.926,2.927c-1.33,0.531-2.394,1.063-3.99,1.063c-1.063,0-2.128-0.266-3.191-0.532
		c-1.064-0.266-1.862-1.063-2.66-1.861c-0.532-0.532-1.064-1.33-1.596-2.128l1.862-1.064c1.063,1.064,1.861,2.128,2.659,2.66
		s1.862,0.798,2.926,0.798c1.597,0,2.66-0.532,3.724-1.596c1.063-1.064,1.596-2.659,1.596-4.521c0-1.596-0.532-2.926-1.596-3.99
		c-1.063-1.063-2.127-1.595-3.724-1.595c-1.063,0-1.861,0.266-2.66,0.798c-0.798,0.531-1.596,1.329-2.394,2.394l-1.862-0.799
		L1195.427,441.574z"/>
	<path d="M1214.045,455.671h4.521v2.394h-4.521V455.671z"/>
	<path d="M1225.482,453.809c0.797-1.064,1.861-1.861,3.191-2.394s2.395-0.798,3.724-0.798c2.128,0,3.724,0.532,5.054,1.862
		c1.33,1.329,1.862,2.925,1.862,5.053c0,1.862-0.532,3.458-1.597,5.054c-1.33,2.128-3.457,3.192-5.851,3.192
		c-1.597,0-3.192-0.532-4.522-1.33c-1.329-0.798-2.394-2.128-3.191-3.99c-0.798-1.861-1.063-3.724-1.063-6.117
		c0-2.659,0.532-4.788,1.329-6.916c0.798-2.127,2.128-3.723,3.724-4.521c1.597-0.799,3.458-1.597,5.319-1.597
		c1.596,0,3.458,0.532,5.055,1.597l-1.33,1.861c-1.33-0.798-2.66-1.063-3.725-1.063c-2.127,0-3.989,0.798-5.319,2.659
		C1226.812,448.224,1225.482,450.352,1225.482,453.809z M1225.748,456.734c0.267,1.33,0.531,2.395,1.063,3.191
		c0.532,1.064,1.33,2.128,2.395,2.66c0.798,0.532,1.596,0.798,2.66,0.798c1.595,0,2.659-0.532,3.723-1.596
		c1.064-1.064,1.597-2.394,1.597-3.989c0-1.597-0.532-2.66-1.33-3.725c-0.799-1.063-2.128-1.33-3.457-1.33
		c-1.33,0-2.395,0.267-3.459,1.064C1227.877,454.606,1226.546,455.404,1225.748,456.734z"/>
</g>
</svg>
